<svg xmlns="http://www.w3.org/2000/svg" version="1.1" xmlns:xlink="http://www.w3.org/1999/xlink" xmlns:svgjs="http://svgjs.com/svgjs" width="1440" height="720" preserveAspectRatio="none" viewBox="0 0 1440 720"><g mask="url(&quot;#SvgjsMask1094&quot;)" fill="none"><rect width="1440" height="720" x="0" y="0" fill="url(#SvgjsLinearGradient1095)"></rect><path d="M1074.3,252.382C1123.527,256.164,1170.951,228.894,1195.554,186.089C1220.079,143.419,1219.495,88.901,1191.549,48.389C1166.541,12.136,1118.248,7.44,1074.3,10.314C1036.219,12.804,1000.113,29.185,980.911,62.164C961.589,95.349,964.605,135.175,981.528,169.645C1001.1,209.511,1030.019,248.98,1074.3,252.382" fill="rgba(148, 229, 119, 1)" class="triangle-float2"></path><path d="M51.343,681.228C94.931,679.769,141.539,670.453,163.35,632.687C185.165,594.914,170.037,549.836,149.43,511.39C127.226,469.965,98.337,422.986,51.343,423.72C4.971,424.444,-18.31,474.253,-41.575,514.373C-64.96,554.7,-97.13,599.919,-74.45,640.647C-51.475,681.903,4.147,682.808,51.343,681.228" fill="rgba(148, 229, 119, 1)" class="triangle-float1"></path><path d="M1290.7458913606122 70.84206442534756L1274.3378613045818 225.5357365399075 1399.5128499253433 172.40210625107025z" fill="rgba(148, 229, 119, 1)" class="triangle-float1"></path><path d="M430.67530884603633 270.6569651267655L547.412511486702 320.2089677624854 596.9645141224219 203.47176512181977 480.2273114817562 153.9197624860999z" fill="rgba(148, 229, 119, 1)" class="triangle-float1"></path><path d="M1347.84,861.935C1415.147,860.174,1477.802,828.5,1512.948,771.071C1549.755,710.928,1560.403,634.43,1524.041,574.017C1488.595,515.125,1416.522,494.04,1347.84,496.754C1284.226,499.267,1228.452,533.377,1194.211,587.049C1156.747,645.772,1133.079,719.315,1167.061,780.119C1201.647,842.003,1276.971,863.789,1347.84,861.935" fill="rgba(148, 229, 119, 1)" class="triangle-float2"></path><path d="M973.596768478013 355.2652897976229L1065.7941546705663 228.36647432749385 938.8953392004373 136.16908813494052 846.6979530078839 263.0679036050696z" fill="rgba(148, 229, 119, 1)" class="triangle-float1"></path><path d="M238.01815269467528 222.44054169943206L190.56953153160958 56.967534915021616 25.096524747199112 104.41615607808733 72.54514591026484 269.88916286249776z" fill="rgba(148, 229, 119, 1)" class="triangle-float2"></path></g><defs><mask id="SvgjsMask1094"><rect width="1440" height="720" fill="#ffffff"></rect></mask><linearGradient x1="12.5%" y1="-25%" x2="87.5%" y2="125%" gradientUnits="userSpaceOnUse" id="SvgjsLinearGradient1095"><stop stop-color="rgba(132, 195, 110, 1)" offset="0"></stop><stop stop-color="rgba(132, 195, 110, 1)" offset="0.5"></stop><stop stop-color="rgba(101, 199, 239, 1)" offset="1"></stop></linearGradient></defs></svg>